<svg width="149" height="76" viewBox="0 0 149 76" fill="none" xmlns="http://www.w3.org/2000/svg">
<path d="M10.45 39.78V57.84H5.77V33.25L3.88 30.3V29.93H9.46L23.58 49.76V29.93H28.26V57.84H23.58L10.45 39.78Z" fill="#F1E9E3"/>
<path d="M49.28 29.48C57.45 29.48 63.65 35.72 63.65 43.89C63.65 52.06 57.45 58.3 49.28 58.3C41.11 58.3 34.91 52.06 34.91 43.89C34.92 35.72 41.12 29.48 49.28 29.48ZM49.28 53.61C54.66 53.61 58.8 49.3 58.8 43.88C58.8 38.46 54.66 34.15 49.28 34.15C43.82 34.15 39.72 38.46 39.72 43.88C39.72 49.3 43.82 53.61 49.28 53.61Z" fill="#F1E9E3"/>
<path d="M70.22 29.93H79.17C84.47 29.93 88.16 32.89 88.16 37.89C88.16 41.91 85.74 44.21 82.74 45.03C86.19 46.71 88.65 51.51 89.47 57.84H84.63C83.52 51.31 80.57 46.8 77.04 46.8H74.9V57.84H70.22V29.93ZM79.13 34.4H74.9V42.32H79.13C81.55 42.32 83.32 40.92 83.32 38.38C83.32 35.84 81.55 34.4 79.13 34.4Z" fill="#F1E9E3"/>
<path d="M100.4 34.4H93.3V29.93H112.18V34.4H105.08V57.84H100.4V34.4Z" fill="#F1E9E3"/>
<path d="M137.59 46.02H123.26V57.84H118.58V29.93H123.26V41.55H137.59V29.93H142.27V57.84H137.59V46.02Z" fill="#F1E9E3"/>
<path d="M10.85 70.76H5.93001V74.83H4.32001V65.23H5.93001V69.23H10.86V65.23H12.47V74.83H10.86V70.76H10.85Z" fill="#F1E9E3"/>
<path d="M20.34 72.45H16.68L15.82 74.82H14.03L17.62 65.22H19.41L23 74.82H21.2L20.34 72.45ZM17.21 70.91H19.82L18.52 67.32L17.21 70.91Z" fill="#F1E9E3"/>
<path d="M24.56 65.22H27.64C29.46 65.22 30.73 66.24 30.73 67.96C30.73 69.34 29.9 70.13 28.87 70.42C30.06 71 30.9 72.65 31.19 74.83H29.52C29.14 72.58 28.12 71.03 26.91 71.03H26.18V74.83H24.57V65.22H24.56ZM27.63 66.76H26.18V69.49H27.63C28.46 69.49 29.07 69.01 29.07 68.13C29.07 67.25 28.46 66.76 27.63 66.76Z" fill="#F1E9E3"/>
<path d="M33.15 65.22H36.61C39.51 65.22 41.34 67.21 41.34 70.02C41.34 72.83 39.5 74.82 36.61 74.82H33.15V65.22ZM34.76 66.76V73.29H36.6C38.55 73.29 39.68 71.89 39.68 70.03C39.68 68.17 38.55 66.77 36.6 66.77H34.76V66.76Z" fill="#F1E9E3"/>
<path d="M42.31 65.22H44.12L46.01 72.78L48.3 66.33L47.98 65.23H49.6L51.86 72.79L53.75 65.23H55.56L52.88 74.83H51.09L49.1 68.5L46.81 74.83H45L42.31 65.22Z" fill="#F1E9E3"/>
<path d="M61.45 65.07C64.26 65.07 66.39 67.22 66.39 70.03C66.39 72.84 64.26 74.99 61.45 74.99C58.64 74.99 56.51 72.84 56.51 70.03C56.5 67.21 58.63 65.07 61.45 65.07ZM61.45 73.37C63.3 73.37 64.73 71.89 64.73 70.02C64.73 68.15 63.3 66.67 61.45 66.67C59.57 66.67 58.16 68.15 58.16 70.02C58.16 71.89 59.57 73.37 61.45 73.37Z" fill="#F1E9E3"/>
<path d="M72.74 65.07C75.55 65.07 77.68 67.22 77.68 70.03C77.68 72.84 75.55 74.99 72.74 74.99C69.93 74.99 67.8 72.84 67.8 70.03C67.8 67.21 69.93 65.07 72.74 65.07ZM72.74 73.37C74.59 73.37 76.02 71.89 76.02 70.02C76.02 68.15 74.59 66.67 72.74 66.67C70.86 66.67 69.45 68.15 69.45 70.02C69.45 71.89 70.86 73.37 72.74 73.37Z" fill="#F1E9E3"/>
<path d="M79.71 65.22H83.17C86.07 65.22 87.9 67.21 87.9 70.02C87.9 72.83 86.06 74.82 83.17 74.82H79.71V65.22ZM81.32 66.76V73.29H83.16C85.11 73.29 86.24 71.89 86.24 70.03C86.24 68.17 85.11 66.77 83.16 66.77H81.32V66.76Z" fill="#F1E9E3"/>
<path d="M95.09 71.15V74.82H93.48V65.22H98.79V66.76H95.09V69.61H98.51V71.15H95.09Z" fill="#F1E9E3"/>
<path d="M100.91 74.83V65.23H102.52V73.29H106.22V74.83H100.91Z" fill="#F1E9E3"/>
<path d="M112.06 65.07C114.87 65.07 117 67.22 117 70.03C117 72.84 114.87 74.99 112.06 74.99C109.25 74.99 107.12 72.84 107.12 70.03C107.12 67.21 109.25 65.07 112.06 65.07ZM112.06 73.37C113.91 73.37 115.34 71.89 115.34 70.02C115.34 68.15 113.91 66.67 112.06 66.67C110.18 66.67 108.77 68.15 108.77 70.02C108.77 71.89 110.19 73.37 112.06 73.37Z" fill="#F1E9E3"/>
<path d="M123.36 65.07C126.17 65.07 128.3 67.22 128.3 70.03C128.3 72.84 126.17 74.99 123.36 74.99C120.55 74.99 118.42 72.84 118.42 70.03C118.42 67.21 120.55 65.07 123.36 65.07ZM123.36 73.37C125.21 73.37 126.64 71.89 126.64 70.02C126.64 68.15 125.21 66.67 123.36 66.67C121.48 66.67 120.07 68.15 120.07 70.02C120.07 71.89 121.48 73.37 123.36 73.37Z" fill="#F1E9E3"/>
<path d="M130.33 65.22H133.41C135.23 65.22 136.5 66.24 136.5 67.96C136.5 69.34 135.67 70.13 134.64 70.42C135.83 71 136.67 72.65 136.96 74.83H135.29C134.91 72.58 133.89 71.03 132.68 71.03H131.95V74.83H130.34V65.22H130.33ZM133.4 66.76H131.95V69.49H133.4C134.23 69.49 134.84 69.01 134.84 68.13C134.84 67.25 134.23 66.76 133.4 66.76Z" fill="#F1E9E3"/>
<path d="M143.65 67.31C143.14 66.92 142.34 66.59 141.56 66.59C140.64 66.59 140.13 67.04 140.13 67.68C140.13 68.09 140.4 68.43 140.92 68.75L142.39 69.67C143.62 70.4 144.08 71.18 144.08 72.23C144.08 73.67 143.06 74.98 140.94 74.98C139.97 74.98 139.12 74.71 138.54 74.43V72.62C139.05 73.03 139.94 73.45 140.87 73.45C141.84 73.45 142.35 72.94 142.35 72.31C142.35 71.89 142.08 71.52 141.46 71.14L139.96 70.22C138.77 69.53 138.39 68.75 138.39 67.73C138.39 66.44 139.24 65.06 141.57 65.06C142.35 65.06 143.07 65.27 143.63 65.55V67.31H143.65Z" fill="#F1E9E3"/>
<path d="M71.07 17.25C71.07 17.25 69.27 -1.65001 41.04 3.51999C41.04 3.51999 45.41 4.90999 48.35 9.09999C48.35 9.09999 57.61 23.82 68.69 18.22C68.69 18.22 72.23 21.14 75.22 24.54L76.14 23.33C76.14 23.33 65.47 12.58 55.32 8.06999C55.32 8.05999 62.69 10.35 71.07 17.25Z" fill="#F1E9E3"/>
<path d="M79.4 8.47C79.4 8.47 83.28 -4.83 84.26 6.23C84.26 6.23 91.54 -4.85 90.14 5.31C90.14 5.31 99.54 -2.92 94.82 6.07C94.82 6.07 108 4.13 95.28 8.81C95.28 8.81 103.17 14.91 91.85 11.13C91.85 11.13 99.73 18.15 87.34 13.41C87.34 13.41 97.04 19.41 82.92 15.93C82.92 15.93 93.71 24.41 77.09 18.26C77.09 18.26 75.67 17.31 74.29 18.63C74.29 18.63 69.29 23.29 66.6 27.98L65.34 26.7C65.34 26.7 72.72 14.4 90.2 8.34C90.2 8.34 81.55 10.08 73.97 15.73C73.96 15.73 76.44 -2.99 79.4 8.47Z" fill="#F1E9E3"/>
<path d="M146.48 19.84L139.44 20.86L110.61 20.98L110.6 17.52L139.4 18.32L146.49 19.51" fill="#F1E9E3"/>
<path d="M108.22 15.66C108.22 15.66 109.74 14.82 111.05 15.69L111.02 19.15C111.02 19.15 110.83 17.15 110.54 16.87C110.26 16.59 110.1 18.54 110.1 18.54L109.51 17.82L109.03 18.57L108.23 16.65L108.22 15.66Z" fill="#F1E9E3"/>
<path d="M111.02 19.29L111.03 22.94C111.03 22.94 109.53 23.65 108.23 22.88L108.27 15.94C108.27 15.94 108.81 21.19 108.95 21.56C109.09 21.92 109.29 20.74 109.29 20.74L109.48 22.01C109.48 22.01 109.79 22.04 110.09 22C110.38 21.96 111.02 19.29 111.02 19.29Z" fill="#F1E9E3"/>
<path d="M2.01 19.84L9.04 20.86L37.88 20.98L37.89 17.52L9.09 18.32L2 19.51" fill="#F1E9E3"/>
<path d="M40.26 15.66C40.26 15.66 38.74 14.82 37.43 15.69L37.46 19.15C37.46 19.15 37.65 17.15 37.94 16.87C38.22 16.59 38.38 18.54 38.38 18.54L38.97 17.82L39.45 18.57L40.25 16.65L40.26 15.66Z" fill="#F1E9E3"/>
<path d="M37.47 19.29L37.46 22.94C37.46 22.94 38.96 23.65 40.26 22.88L40.22 15.94C40.22 15.94 39.68 21.19 39.54 21.56C39.4 21.92 39.2 20.74 39.2 20.74L39.01 22.01C39.01 22.01 38.7 22.04 38.4 22C38.1 21.96 37.47 19.29 37.47 19.29Z" fill="#F1E9E3"/>
</svg>
