<svg width="266" height="250" viewBox="0 0 266 250" fill="none" xmlns="http://www.w3.org/2000/svg">
<path 
    d="M132.98 245.96C90.19 245.96 47.4 245.96 4.60997 245.96C3.17997 245.96 3.38997 246.07 3.38997 244.75C3.38997 180.81 3.38997 116.87 3.38997 52.93C3.38997 36.66 3.38997 20.4 3.38997 4.12999C3.38997 3.18999 3.38997 3.18999 4.38997 3.18999C69.26 3.18999 134.13 3.18999 199 3.18999C219.76 3.18999 240.52 3.18999 261.28 3.18999C261.44 3.18999 261.61 3.20999 261.77 3.18999C262.39 3.10999 262.67 3.30999 262.62 3.96999C262.56 4.72999 262.61 5.49999 262.61 6.25999C262.61 85.61 262.61 164.96 262.61 244.31C262.61 245.96 262.61 245.96 260.86 245.96C218.23 245.96 175.61 245.96 132.98 245.96ZM256.05 239.79C256.08 239.41 256.12 239.1 256.12 238.8C256.13 237.86 256.11 236.91 256.11 235.97C256.11 161.48 256.11 86.98 256.11 12.49C256.11 11.64 256.1 10.78 256.12 9.92999C256.13 9.52999 255.97 9.34999 255.54 9.36999C254.98 9.38999 254.41 9.36999 253.85 9.36999C172.95 9.36999 92.05 9.36999 11.15 9.36999C10.89 9.36999 10.63 9.37999 10.37 9.36999C9.98997 9.32999 9.81997 9.48999 9.82997 9.86999C9.84997 10.54 9.83997 11.22 9.83997 11.89C9.83997 87.53 9.83997 163.17 9.83997 238.82C9.83997 239.79 9.83997 239.79 10.84 239.79C29.32 239.79 47.79 239.79 66.27 239.79C129.09 239.79 191.91 239.79 254.74 239.79C255.15 239.79 255.57 239.79 256.05 239.79Z" 
    fill="#F1E9E3"
/>
<path 
    d="M132.97 160.22C168.89 160.22 204.8 160.22 240.72 160.23C242.13 160.23 242.08 159.88 242.08 161.64C242.07 170.87 242.07 180.09 242.07 189.32C242.07 198.59 242.07 207.87 242.07 217.14C242.07 218.12 242.07 218.12 241.1 218.12C221.92 218.12 202.74 218.13 183.55 218.13C161.33 218.13 139.12 218.13 116.9 218.13C93.9101 218.13 70.9101 218.13 47.9201 218.13C40.2501 218.13 32.5701 218.13 24.9001 218.13C23.8401 218.13 23.8401 218.13 23.8401 217.1C23.8401 198.46 23.8401 179.82 23.8401 161.18C23.8401 160.22 23.8401 160.22 24.8001 160.22C60.8601 160.22 96.9101 160.22 132.97 160.22ZM199.92 207.1C199.77 206.71 199.69 206.48 199.59 206.24C197.65 201.62 195.73 197 193.76 192.39C193.5 191.78 193.63 191.48 194.17 191.24C194.36 191.15 194.55 191.05 194.73 190.94C195.99 190.19 197.22 189.4 198.09 188.19C199.22 186.61 199.65 184.8 199.78 182.89C200.04 179.11 198.69 176.09 195.59 173.89C193.22 172.2 190.49 171.63 187.65 171.6C181.65 171.55 175.65 171.59 169.65 171.59C167.88 171.59 167.88 171.59 167.88 173.38C167.88 184.3 167.88 195.22 167.88 206.14C167.88 207.09 167.89 207.08 168.81 207.08C171.89 207.08 174.98 207.08 178.06 207.08C179.04 207.08 179.05 207.08 179.05 206.12C179.05 202.17 179.06 198.21 179.04 194.26C179.04 193.71 179.18 193.49 179.75 193.52C180.38 193.56 181.02 193.56 181.66 193.52C182.24 193.48 182.53 193.67 182.74 194.24C184.27 198.26 185.84 202.27 187.38 206.29C187.61 206.88 187.91 207.11 188.56 207.1C191.95 207.07 195.34 207.09 198.73 207.09C199.08 207.1 199.43 207.1 199.92 207.1ZM129.1 189.4C129.03 189.41 128.97 189.42 128.9 189.43C129.2 191.39 129.35 193.39 129.83 195.31C131.11 200.4 134.18 204.1 138.97 206.28C142.02 207.67 145.27 207.93 148.57 207.55C154.47 206.87 158.69 203.7 161.3 198.48C163.64 193.78 163.89 188.75 162.7 183.7C161.39 178.16 158.06 174.21 152.73 172.12C149.53 170.86 146.17 170.75 142.8 171.3C138.49 172 135.01 174.1 132.5 177.7C130.05 181.2 129.05 185.15 129.1 189.4ZM91.7501 189.42C91.9101 190.89 91.9701 192.37 92.2301 193.82C93.0301 198.23 95.1301 201.88 98.7801 204.57C102.76 207.5 107.28 208.19 112 207.46C118.17 206.51 122.35 202.86 124.66 197.14C126.39 192.84 126.53 188.34 125.5 183.84C124.27 178.44 121.12 174.52 116.02 172.33C112.22 170.7 108.25 170.63 104.26 171.57C100.14 172.54 97.0001 174.88 94.7701 178.46C92.6601 181.81 91.8001 185.49 91.7501 189.42ZM232.63 179.72C231.72 176.74 228.74 173.58 225.73 172.38C221.16 170.57 216.5 170.58 211.82 171.84C206.94 173.15 202.68 177.72 203.26 183.65C203.58 186.87 205.15 189.33 207.91 190.98C210.51 192.53 213.43 193.21 216.34 193.91C217.87 194.28 219.41 194.62 220.9 195.11C222.1 195.51 222.48 196.29 222.36 197.53C222.29 198.26 221.57 198.97 220.5 199.1C219.27 199.24 218.01 199.34 216.79 199.23C214.5 199.02 212.75 197.9 211.88 195.66C211.71 195.23 211.5 195.11 211.03 195.2C208.91 195.59 206.78 195.94 204.65 196.31C203.59 196.49 202.54 196.69 201.47 196.89C201.49 197.09 201.48 197.21 201.51 197.32C202.78 201.29 205.13 204.35 209.02 206.1C212.05 207.46 215.26 207.74 218.54 207.67C221.65 207.61 224.61 207.03 227.36 205.54C230.99 203.58 233.27 200.66 233.66 196.45C234.08 191.89 231.12 187.31 226.77 185.93C224.4 185.18 221.96 184.65 219.55 184C218.15 183.62 216.75 183.22 215.37 182.76C214.5 182.47 214.28 181.72 214.35 180.87C214.41 180.06 214.81 179.45 215.6 179.27C216.42 179.09 217.26 178.99 218.1 178.97C220.39 178.94 222.23 179.78 223.28 181.94C223.47 182.34 223.68 182.42 224.1 182.29C225.83 181.75 227.57 181.25 229.3 180.72C230.4 180.4 231.5 180.07 232.63 179.72ZM35.4101 189.35C35.4101 195 35.4201 200.65 35.4001 206.29C35.4001 206.9 35.5501 207.1 36.1901 207.1C39.2501 207.07 42.3101 207.07 45.3701 207.11C46.1101 207.12 46.2801 206.87 46.2701 206.18C46.2401 202.37 46.2601 198.56 46.2601 194.74C46.2601 193.79 46.2601 193.79 47.1801 193.79C50.3601 193.79 53.5301 193.8 56.7101 193.79C58.2201 193.79 57.9201 193.85 57.9301 192.61C57.9501 190.56 57.9201 188.51 57.9501 186.47C57.9601 185.88 57.7701 185.71 57.1901 185.71C53.8501 185.73 50.5101 185.72 47.1601 185.71C46.2501 185.71 46.2501 185.71 46.2501 184.77C46.2501 183.55 46.2501 182.32 46.2501 181.1C46.2501 180.13 46.2501 180.13 47.1901 180.13C51.6901 180.13 56.1801 180.11 60.6701 180.14C61.3301 180.14 61.5301 179.92 61.5201 179.28C61.4901 177 61.4901 174.71 61.5101 172.43C61.5201 171.79 61.3301 171.59 60.6801 171.59C52.5601 171.61 44.4401 171.6 36.3201 171.6C35.4101 171.6 35.4001 171.61 35.4001 172.54C35.4001 178.15 35.4101 183.75 35.4101 189.35ZM64.9101 189.35C64.9101 191.56 64.9101 193.77 64.9101 195.99C64.9101 199.43 64.9201 202.86 64.9001 206.3C64.8901 206.96 65.1101 207.17 65.7501 207.13C66.5701 207.08 67.4001 207.11 68.2201 207.11C75.2101 207.11 82.2001 207.1 89.1901 207.12C89.9101 207.12 90.1201 206.91 90.1101 206.2C90.0701 203.87 90.0801 201.54 90.1101 199.21C90.1201 198.62 89.9101 198.42 89.3301 198.44C88.3401 198.47 87.3501 198.45 86.3701 198.45C83.1901 198.45 80.0201 198.43 76.8401 198.47C76.1401 198.48 75.9001 198.25 75.9801 197.59C76.0101 197.33 75.9801 197.07 75.9801 196.81C75.9801 188.71 75.9801 180.62 76.0001 172.52C76.0001 171.82 75.8201 171.59 75.0901 171.6C72.0101 171.64 68.9201 171.62 65.8401 171.62C64.9101 171.62 64.9101 171.62 64.9101 172.55C64.9101 178.14 64.9101 183.74 64.9101 189.35Z" 
    fill="#F1E9E3"/>
<path 
    d="M164.02 82.2C163.64 82.2 163.39 82.2 163.14 82.2C158.39 82.2 153.63 82.19 148.88 82.21C148.25 82.21 148 81.99 147.8 81.41C145.74 75.58 143.65 69.76 141.57 63.94C141.41 63.5 141.16 63.32 140.68 63.34C139.72 63.37 138.75 63.39 137.79 63.34C137.12 63.31 136.96 63.56 136.97 64.19C136.99 69.91 136.98 75.63 136.98 81.35C136.98 81.6 136.98 81.85 136.98 82.15C136.67 82.17 136.44 82.19 136.21 82.19C131.95 82.19 127.69 82.18 123.43 82.21C122.78 82.21 122.6 82.04 122.6 81.38C122.62 65.49 122.61 49.6 122.61 33.72C122.61 32.71 122.61 32.71 123.65 32.71C131.37 32.71 139.09 32.7 146.81 32.72C149.53 32.73 152.21 32.99 154.78 33.97C160.69 36.23 164.04 41.28 163.88 47.61C163.82 50.16 163.4 52.63 162.23 54.91C160.99 57.33 158.89 58.87 156.59 60.18C155.68 60.7 155.68 60.68 156.07 61.66C158.64 68.23 161.2 74.8 163.76 81.37C163.82 81.59 163.89 81.81 164.02 82.2ZM136.96 47.98C136.96 49.32 136.97 50.66 136.96 52C136.96 52.39 137.04 52.63 137.5 52.62C139.78 52.59 142.08 52.71 144.34 52.5C146.82 52.27 148.73 50.99 148.84 48.17C148.94 45.55 147.58 43.73 144.99 43.53C142.51 43.34 140.01 43.4 137.52 43.34C137.07 43.33 136.96 43.55 136.96 43.95C136.97 45.3 136.96 46.64 136.96 47.98Z" 
    fill="#F1E9E3"/>
<path 
    d="M54.8001 32.78C58.8101 32.78 62.6801 32.78 66.5701 32.78C66.5701 49.26 66.5701 65.68 66.5701 82.16C66.2801 82.18 66.0301 82.2 65.7801 82.2C62.3901 82.2 59.0001 82.19 55.6101 82.22C55.0701 82.22 54.7601 82.06 54.4901 81.59C51.0901 75.73 47.6501 69.9 44.2401 64.04C42.0501 60.28 39.8701 56.52 38.1901 52.49C38.1201 52.32 38.0201 52.17 37.8201 52.03C37.9701 53.1 38.1301 54.16 38.2501 55.23C38.3401 56.05 38.4401 56.87 38.4401 57.69C38.4601 65.57 38.4401 73.46 38.4701 81.34C38.4701 82 38.3201 82.23 37.6201 82.22C34.3001 82.18 30.9801 82.2 27.6601 82.2C27.4001 82.2 27.1501 82.2 26.8301 82.2C26.8301 65.69 26.8301 49.26 26.8301 32.75C27.0701 32.74 27.3201 32.72 27.5701 32.72C31.5901 32.72 35.6201 32.73 39.6401 32.71C40.1601 32.71 40.4401 32.89 40.7001 33.32C44.6401 39.95 48.6001 46.57 52.5201 53.21C53.4701 54.83 54.2601 56.54 55.1301 58.21C55.2301 58.41 55.3401 58.61 55.5401 58.78C54.3501 50.14 55.0101 41.47 54.8001 32.78Z" 
    fill="#F1E9E3"/>
<path 
    d="M203.71 32.77C208.56 32.77 213.3 32.77 218.12 32.77C218.12 33.15 218.12 33.47 218.12 33.8C218.12 39.19 218.13 44.58 218.1 49.97C218.1 50.69 218.31 50.9 219.02 50.89C222.01 50.86 225 50.86 227.99 50.89C228.63 50.9 228.84 50.71 228.84 50.05C228.82 44.57 228.83 39.08 228.83 33.6C228.83 33.34 228.83 33.09 228.83 32.78C233.64 32.78 238.39 32.78 243.18 32.78C243.18 49.26 243.18 65.7 243.18 82.18C242.93 82.19 242.73 82.21 242.52 82.21C238.24 82.21 233.95 82.2 229.67 82.22C229.05 82.22 228.82 82.09 228.82 81.41C228.85 75.6 228.83 69.78 228.83 63.97C228.83 63.02 228.82 63.01 227.85 63.01C224.88 63.01 221.92 63.03 218.95 63C218.3 62.99 218.11 63.21 218.11 63.85C218.13 69.69 218.11 75.52 218.14 81.36C218.14 82.04 217.96 82.23 217.27 82.22C213.01 82.19 208.75 82.19 204.49 82.22C203.87 82.22 203.7 82.05 203.7 81.43C203.72 65.52 203.71 49.61 203.71 33.69C203.71 33.41 203.71 33.13 203.71 32.77Z" 
    fill="#F1E9E3"/>
<path 
    d="M116.73 58.04C116.55 63.61 115.46 68.93 112.25 73.62C107.73 80.23 101.44 83.28 93.4499 82.94C89.0999 82.75 85.1199 81.51 81.6499 78.85C77.8299 75.93 75.2199 72.13 73.8599 67.53C71.8199 60.65 71.7999 53.72 74.1099 46.91C76.1199 40.98 79.7099 36.27 85.6199 33.7C89.3299 32.09 93.2399 31.68 97.2299 32.1C105.54 32.98 111.17 37.5 114.52 45.01C116.36 49.15 116.8 53.56 116.73 58.04ZM101.3 56.84C101.22 55.17 101.19 53.76 101.07 52.35C100.9 50.38 100.53 48.44 99.6899 46.62C97.8299 42.61 92.9499 42.13 90.3899 45.73C89.4399 47.06 88.9799 48.59 88.6299 50.15C87.9299 53.3 87.8499 56.49 87.9599 59.7C88.0499 62.33 88.2899 64.96 89.2899 67.45C90.2099 69.76 91.6499 71.47 94.3699 71.56C96.2699 71.62 97.8799 71.01 99.0099 69.4C100.27 67.6 100.63 65.51 100.85 63.4C101.08 61.14 101.17 58.86 101.3 56.84Z" 
    fill="#F1E9E3"/>
<path d="M132.91 90.73C153.69 90.73 174.47 90.72 195.26 90.73C203.66 90.74 212.06 90.8 220.47 90.83C226.97 90.85 233.46 90.88 239.96 90.87C240.66 90.87 240.91 91.05 240.89 91.78C240.84 93.31 240.84 94.84 240.89 96.37C240.91 97.08 240.71 97.28 239.99 97.28C228.29 97.23 216.6 97.21 204.9 97.19C198.07 97.18 191.25 97.19 184.42 97.17C176.49 97.15 168.56 97.09 160.63 97.06C146.25 97.01 131.87 96.97 117.49 96.94C103.93 96.91 90.38 96.88 76.82 96.85C59.9 96.81 42.98 96.76 26.05 96.71C25.1 96.71 25.1 96.7 25.1 95.73C25.1 94.13 25.11 92.53 25.09 90.93C25.08 90.44 25.25 90.28 25.74 90.28C33.74 90.32 41.74 90.35 49.75 90.38C53.19 90.39 56.62 90.43 60.06 90.43C70.04 90.45 80.02 90.46 90 90.47C97.58 90.48 105.16 90.5 112.74 90.51C119.47 90.52 126.2 90.51 132.93 90.51C132.91 90.59 132.91 90.66 132.91 90.73Z" 
fill="#F1E9E3"/>
<path d="M199.84 32.75C199.84 33.19 199.84 33.56 199.84 33.94C199.84 37.21 199.84 40.48 199.84 43.75C199.84 44.69 199.83 44.69 198.87 44.69C196.31 44.69 193.74 44.69 191.18 44.69C190.23 44.69 190.23 44.7 190.23 45.67C190.23 57.46 190.23 69.25 190.23 81.03C190.23 81.38 190.23 81.73 190.23 82.15C189.95 82.17 189.72 82.19 189.49 82.19C185.44 82.19 181.4 82.18 177.35 82.21C176.67 82.22 176.54 81.99 176.54 81.36C176.56 69.45 176.55 57.55 176.55 45.64C176.55 44.68 176.55 44.68 175.6 44.68C172.99 44.68 170.38 44.66 167.77 44.69C167.12 44.7 166.99 44.48 166.99 43.88C167.01 40.4 167.01 36.92 166.99 33.43C166.99 32.92 167.08 32.69 167.68 32.69C178.17 32.71 188.67 32.7 199.16 32.71C199.33 32.72 199.52 32.74 199.84 32.75Z" 

fill="#F1E9E3"/>
<path d="M145.9 122.83C145.79 123.54 145.67 124.25 145.57 124.96C144.73 130.99 143.89 137.02 143.06 143.05C142.64 146.1 142.22 149.15 141.82 152.2C141.74 152.81 141.59 153.15 140.83 153.12C139.3 153.05 137.77 153.08 136.24 153.11C135.71 153.12 135.49 152.95 135.41 152.42C134.53 146.51 133.64 140.61 132.73 134.71C131.84 128.9 130.93 123.09 130.04 117.29C129.6 114.43 129.19 111.57 128.75 108.71C128.67 108.22 128.8 108 129.31 108C131.29 108.01 133.26 108.01 135.24 108C135.61 108 135.77 108.16 135.81 108.55C136.22 112.5 136.65 116.46 137.08 120.41C137.49 124.22 137.91 128.03 138.31 131.84C138.52 133.76 138.71 135.67 138.91 137.59C138.93 137.76 138.98 137.94 139.17 138.11C139.27 137.43 139.38 136.76 139.47 136.08C140.31 129.84 141.15 123.59 142 117.35C142.39 114.46 142.79 111.57 143.16 108.68C143.22 108.22 143.36 108.02 143.84 108.02C145.58 108.03 147.32 108.02 149.06 108.01C149.43 108.01 149.61 108.13 149.66 108.53C150.05 111.66 150.45 114.78 150.85 117.91C151.37 121.97 151.88 126.03 152.4 130.08C152.7 132.46 152.99 134.84 153.29 137.22C153.32 137.47 153.37 137.71 153.57 137.96C153.73 136.74 153.91 135.53 154.06 134.31C154.63 129.64 155.19 124.97 155.76 120.31C156.22 116.53 156.69 112.75 157.15 108.97C157.27 108.02 157.26 108.02 158.23 108.02C159.67 108.02 161.1 108.03 162.54 108.01C163.07 108 163.22 108.14 163.13 108.71C162.35 113.77 161.59 118.84 160.83 123.91C159.96 129.77 159.1 135.63 158.23 141.49C157.69 145.14 157.11 148.79 156.58 152.44C156.5 152.98 156.29 153.14 155.77 153.13C154.15 153.1 152.52 153.1 150.9 153.13C150.41 153.14 150.2 153.01 150.13 152.49C149.14 145.03 148.13 137.58 147.13 130.12C146.83 127.88 146.52 125.65 146.22 123.41C146.19 123.23 146.14 123.05 146.1 122.86C146.03 122.84 145.97 122.83 145.9 122.83Z" 
fill="#F1E9E3"/>
<path d="M42.11 126.1C42.11 125.73 42.11 125.41 42.11 125.08C42.11 119.69 42.11 114.3 42.1 108.91C42.1 107.98 42.1 107.98 43.04 107.99C44.81 107.99 46.57 108.01 48.34 107.99C48.9 107.98 49.06 108.16 49.06 108.72C49.05 123.17 49.05 137.62 49.06 152.08C49.06 152.69 48.93 152.96 48.24 152.94C46.48 152.89 44.71 152.9 42.94 152.94C42.31 152.95 42.09 152.78 42.09 152.12C42.11 146.61 42.1 141.1 42.1 135.6C42.1 135.27 42.1 134.95 42.1 134.53C41.78 134.51 41.51 134.48 41.24 134.48C39.31 134.48 37.38 134.48 35.45 134.48C34.5 134.48 34.5 134.48 34.5 135.41C34.5 140.94 34.5 146.47 34.5 152C34.5 152.94 34.5 152.94 33.57 152.94C31.92 152.94 30.27 152.94 28.63 152.94C27.54 152.94 27.54 152.94 27.54 151.88C27.54 141.95 27.54 132.01 27.54 122.08C27.54 117.68 27.55 113.28 27.52 108.88C27.52 108.2 27.71 107.99 28.4 108.01C30.14 108.05 31.88 108.05 33.62 108.01C34.28 108 34.51 108.17 34.51 108.88C34.48 114.34 34.51 119.8 34.48 125.26C34.48 125.97 34.67 126.21 35.39 126.2C37.39 126.16 39.39 126.18 41.39 126.18C41.62 126.15 41.82 126.12 42.11 126.1Z" 
fill="#F1E9E3"/>
<path d="M105.24 130.46C105.24 123.33 105.24 116.2 105.24 109.07C105.24 107.99 105.24 107.98 106.32 107.99C109.07 108.01 111.83 107.96 114.58 108.09C117.06 108.21 119.43 108.85 121.42 110.42C123.26 111.87 124.38 113.86 125.23 116.01C126.86 120.13 127.23 124.45 127.31 128.82C127.39 133.06 127.18 137.28 126.11 141.42C125.5 143.77 124.74 146.05 123.45 148.14C121.54 151.24 118.73 152.72 115.17 152.82C112.09 152.91 109.01 152.87 105.93 152.91C105.44 152.92 105.24 152.73 105.25 152.26C105.26 152.02 105.25 151.79 105.25 151.55C105.23 144.53 105.23 137.5 105.24 130.46C105.23 130.46 105.23 130.46 105.24 130.46ZM112.2 130.47C112.2 135.06 112.2 139.64 112.2 144.23C112.2 144.44 112.17 144.66 112.22 144.86C112.26 145.01 112.42 145.22 112.53 145.23C114.26 145.3 115.96 145.2 117.2 143.78C118.55 142.24 119.12 140.31 119.37 138.35C119.7 135.77 119.88 133.16 119.95 130.56C120.04 127.36 119.9 124.17 119.11 121.04C118.91 120.25 118.62 119.47 118.3 118.72C117.3 116.4 115.42 115.59 113.01 115.68C112.36 115.7 112.18 115.87 112.18 116.51C112.21 121.16 112.2 125.81 112.2 130.47Z" 
fill="#F1E9E3"/>
<path d="M219.3 130.39C219.3 123.23 219.3 116.08 219.3 108.92C219.3 108 219.3 107.99 220.25 108C223 108.02 225.76 107.95 228.51 108.09C233.3 108.33 236.86 110.48 238.84 115.02C240.14 117.99 240.8 121.09 241.09 124.3C241.52 129.05 241.52 133.8 240.74 138.51C240.24 141.58 239.45 144.58 237.96 147.35C236.07 150.87 233.15 152.75 229.15 152.84C226.14 152.91 223.13 152.88 220.11 152.93C219.45 152.94 219.28 152.7 219.28 152.07C219.3 144.84 219.3 137.61 219.3 130.39ZM226.21 130.39C226.2 130.39 226.2 130.39 226.21 130.39C226.21 135.02 226.21 139.66 226.21 144.29C226.21 144.48 226.17 144.69 226.24 144.85C226.31 145.01 226.5 145.24 226.64 145.24C228.34 145.29 230 145.15 231.25 143.78C232.35 142.57 232.91 141.07 233.16 139.52C233.55 137.14 233.85 134.73 233.96 132.32C234.14 128.63 234.1 124.93 233.22 121.31C232.94 120.16 232.5 119.01 231.93 117.97C230.88 116.03 229.03 115.62 226.98 115.67C226.35 115.69 226.19 115.87 226.19 116.48C226.22 121.12 226.21 125.75 226.21 130.39Z" 
fill="#F1E9E3"/>
<path d="M101.51 152.88C101.13 152.9 100.88 152.92 100.63 152.92C98.7201 152.92 96.8201 152.89 94.9101 152.94C94.2201 152.96 93.9801 152.71 93.8301 152.07C92.7901 147.56 91.7101 143.05 90.6401 138.54C90.4201 137.6 90.1701 136.67 89.9801 135.73C89.8801 135.27 89.6401 135.12 89.1901 135.13C88.4801 135.15 87.7801 135.17 87.0701 135.12C86.4501 135.08 86.2601 135.31 86.2601 135.92C86.2901 138.77 86.2701 141.62 86.2701 144.46C86.2701 147.03 86.2601 149.59 86.2801 152.16C86.2901 152.74 86.1101 152.94 85.5201 152.93C83.6801 152.9 81.8501 152.9 80.0101 152.93C79.4901 152.94 79.3201 152.78 79.3201 152.24C79.3301 137.74 79.3301 123.24 79.3201 108.74C79.3201 108.22 79.4301 107.97 80.0201 107.98C83.6701 108.02 87.3201 108.09 90.9601 108.04C94.9001 107.98 97.2801 110.09 98.7301 113.48C100.06 116.6 100.32 119.89 100.09 123.24C99.9601 125.13 99.6601 126.98 98.9801 128.75C98.3701 130.33 97.4801 131.74 96.1801 132.84C95.8201 133.15 95.7601 133.43 95.9001 133.88C97.6901 139.85 99.4501 145.83 101.22 151.8C101.33 152.11 101.4 152.43 101.51 152.88ZM86.2801 121.53C86.2801 123.39 86.3001 125.25 86.2701 127.1C86.2601 127.73 86.4801 127.93 87.0801 127.9C87.8501 127.86 88.6301 127.9 89.4101 127.88C91.0501 127.85 92.2601 127.06 92.7101 125.51C93.0901 124.2 93.3101 122.81 93.3801 121.44C93.4601 119.87 93.2101 118.31 92.3901 116.89C91.7601 115.8 90.8601 115.28 89.6301 115.26C88.7801 115.25 87.9301 115.29 87.0901 115.24C86.4601 115.2 86.2701 115.42 86.2801 116.03C86.3001 117.86 86.2801 119.69 86.2801 121.53Z" 
fill="#F1E9E3"/>
<path d="M187.75 130.51C187.68 134.77 187.5 139.02 186.49 143.18C185.92 145.5 185.12 147.72 183.75 149.71C180.91 153.82 175.17 154.92 171.14 152.08C169.02 150.58 167.82 148.41 166.91 146.05C165.74 143.02 165.24 139.84 164.96 136.62C164.61 132.46 164.62 128.3 164.96 124.14C165.27 120.4 165.87 116.71 167.5 113.28C168.8 110.56 170.67 108.44 173.71 107.65C177.69 106.61 181.37 108 183.71 111.38C185.51 113.97 186.46 116.9 186.88 119.97C187.36 123.46 187.59 126.98 187.94 130.48C187.89 130.5 187.82 130.5 187.75 130.51ZM180.56 130.53C180.29 127.01 180.11 123.54 179.73 120.09C179.6 118.92 179.12 117.7 178.5 116.68C177.39 114.86 175.06 114.96 173.89 116.73C173.1 117.92 172.73 119.27 172.61 120.65C172.37 123.34 172.17 126.04 172.1 128.73C172 132.7 172.02 136.68 172.62 140.62C172.82 141.95 173.14 143.25 173.95 144.37C175.09 145.96 177.17 146 178.39 144.46C179.2 143.43 179.63 142.23 179.74 140.95C180.05 137.48 180.29 133.99 180.56 130.53Z" 
fill="#F1E9E3"/>
<path d="M191.31 130.4C191.42 126.22 191.64 122.07 192.59 117.99C193.19 115.43 194.03 112.96 195.68 110.86C199.54 105.94 206.77 106.15 210.35 111.28C212.12 113.82 213.03 116.71 213.57 119.71C214.61 125.56 214.61 131.46 214.11 137.36C213.81 140.88 213.17 144.35 211.65 147.59C210.51 150 208.92 151.99 206.35 152.99C201.96 154.7 197.37 153.02 194.95 148.87C193.02 145.54 192.2 141.89 191.81 138.12C191.56 135.57 191.48 132.98 191.31 130.4ZM207.25 131.5C207.02 127.79 206.9 124.34 206.56 120.9C206.43 119.58 205.92 118.26 205.41 117.01C204.97 115.95 204.05 115.34 202.83 115.38C201.64 115.42 200.78 116.06 200.38 117.11C199.9 118.37 199.42 119.68 199.26 121.01C198.55 126.77 198.61 132.55 199.04 138.33C199.18 140.25 199.37 142.18 200.35 143.92C200.88 144.87 201.62 145.54 202.79 145.58C203.98 145.62 204.86 145.07 205.36 144.05C205.79 143.18 206.25 142.24 206.36 141.29C206.74 137.96 206.97 134.61 207.25 131.5Z" 
fill="#F1E9E3"/>
<path d="M51.2 152.78C51.41 151.71 51.62 150.63 51.84 149.56C52.61 145.9 53.39 142.25 54.16 138.59C55.02 134.54 55.88 130.49 56.74 126.45C57.98 120.61 59.2199 114.77 60.4199 108.92C60.5599 108.24 60.8099 107.98 61.5099 107.99C63.3199 108.03 65.1299 108.02 66.9499 108.01C67.4699 108.01 67.7299 108.16 67.8399 108.73C68.8699 113.99 69.94 119.25 71 124.5C72.6 132.45 74.2 140.41 75.8 148.36C76.1 149.83 76.38 151.3 76.69 152.84C76.4 152.88 76.21 152.92 76.01 152.92C74.13 152.92 72.24 152.9 70.36 152.93C69.8 152.94 69.57 152.75 69.48 152.2C69.07 149.69 68.6199 147.19 68.1999 144.69C68.0199 143.6 68.03 143.6 66.93 143.6C64.58 143.6 62.2199 143.62 59.8699 143.59C59.2699 143.58 59.06 143.81 58.97 144.38C58.54 147.03 58.07 149.66 57.63 152.31C57.57 152.69 57.46 152.93 57.04 152.93C55.18 152.92 53.3199 152.92 51.4599 152.9C51.3999 152.89 51.34 152.84 51.2 152.78ZM63.5999 118.25C63.5499 118.25 63.5 118.25 63.45 118.26C63.41 118.41 63.36 118.55 63.33 118.7C63.01 120.55 62.6999 122.4 62.3899 124.26C61.7899 127.87 61.2 131.49 60.58 135.1C60.47 135.74 60.63 135.95 61.27 135.94C62.82 135.91 64.3699 135.91 65.9199 135.94C66.5599 135.95 66.6899 135.7 66.5899 135.13C66.3299 133.74 66.1 132.35 65.86 130.97C65.26 127.57 64.67 124.17 64.07 120.77C63.92 119.93 63.7499 119.09 63.5999 118.25Z" 
fill="#F1E9E3"/>
<path d="M199.92 207.1C199.42 207.1 199.07 207.1 198.73 207.1C195.34 207.1 191.95 207.08 188.56 207.11C187.9 207.12 187.6 206.89 187.38 206.3C185.85 202.28 184.27 198.28 182.74 194.25C182.52 193.68 182.23 193.49 181.66 193.53C181.03 193.57 180.39 193.57 179.75 193.53C179.18 193.5 179.04 193.72 179.04 194.27C179.06 198.22 179.05 202.18 179.05 206.13C179.05 207.09 179.05 207.09 178.06 207.09C174.98 207.09 171.89 207.09 168.81 207.09C167.88 207.09 167.88 207.09 167.88 206.15C167.88 195.23 167.88 184.31 167.88 173.39C167.88 171.6 167.88 171.6 169.65 171.6C175.65 171.6 181.65 171.57 187.65 171.61C190.49 171.63 193.21 172.21 195.59 173.9C198.69 176.1 200.04 179.12 199.78 182.9C199.65 184.81 199.22 186.62 198.09 188.2C197.22 189.41 195.99 190.2 194.73 190.95C194.55 191.06 194.36 191.16 194.17 191.25C193.63 191.49 193.5 191.79 193.76 192.4C195.73 197.01 197.65 201.63 199.59 206.25C199.69 206.48 199.78 206.72 199.92 207.1ZM179.06 182.5C179.06 183.39 179.09 184.29 179.04 185.18C179.01 185.75 179.18 185.98 179.77 185.97C181.3 185.95 182.82 186.02 184.35 185.95C185.43 185.9 186.51 185.66 187.34 184.89C188.44 183.86 188.44 182.53 188.06 181.23C187.65 179.81 186.44 179.3 185.11 179.23C183.28 179.13 181.45 179.19 179.62 179.17C179.19 179.16 179.04 179.34 179.05 179.76C179.07 180.67 179.06 181.59 179.06 182.5Z" 
fill="#334B5C"/>
<path d="M129.1 189.4C129.04 185.15 130.05 181.2 132.5 177.68C135.02 174.08 138.49 171.98 142.8 171.28C146.17 170.73 149.53 170.84 152.73 172.1C158.06 174.2 161.39 178.15 162.7 183.68C163.89 188.73 163.64 193.76 161.3 198.46C158.7 203.69 154.47 206.85 148.57 207.53C145.27 207.91 142.03 207.65 138.97 206.26C134.18 204.08 131.11 200.38 129.83 195.29C129.35 193.37 129.2 191.37 128.9 189.41C128.97 189.42 129.04 189.41 129.1 189.4ZM151.65 188.59C151.59 188.58 151.53 188.57 151.47 188.56C151.42 187.74 151.4 186.92 151.33 186.1C151.19 184.41 150.93 182.74 150.09 181.23C148.84 178.97 145.72 178.35 143.7 179.98C142.54 180.91 142.02 182.22 141.65 183.59C140.96 186.14 140.93 188.75 141.04 191.35C141.12 193.23 141.37 195.09 142.13 196.84C143.07 199.03 145.18 200.06 147.49 199.48C149.29 199.03 150.26 197.74 150.59 196.08C151.05 193.61 151.3 191.09 151.65 188.59Z" 
fill="#334B5C"/>
<path d="M91.75 189.42C91.81 185.49 92.67 181.81 94.76 178.45C97 174.86 100.13 172.52 104.25 171.56C108.24 170.62 112.22 170.69 116.01 172.32C121.11 174.51 124.26 178.44 125.49 183.83C126.52 188.33 126.38 192.83 124.65 197.13C122.35 202.85 118.17 206.5 111.99 207.45C107.27 208.18 102.74 207.49 98.77 204.56C95.12 201.87 93.02 198.22 92.22 193.81C91.97 192.38 91.9 190.89 91.75 189.42ZM103.72 189.97C103.76 190.62 103.78 191.58 103.87 192.54C104.06 194.37 104.36 196.16 105.38 197.76C106.79 199.97 109.66 200.01 111.32 199.03C112.8 198.17 113.3 196.68 113.57 195.13C113.84 193.59 113.95 192.01 114.09 190.45C114.31 188.03 114.18 185.62 113.61 183.25C113.25 181.76 112.66 180.35 111.22 179.58C109.28 178.55 106.23 178.82 104.89 182.11C103.91 184.54 103.78 187.09 103.72 189.97Z" 
fill="#334B5C"/>
<path d="M232.63 179.72C231.5 180.07 230.4 180.4 229.3 180.73C227.57 181.25 225.83 181.75 224.1 182.3C223.68 182.43 223.47 182.35 223.28 181.95C222.23 179.8 220.39 178.95 218.1 178.98C217.26 178.99 216.42 179.1 215.6 179.28C214.81 179.46 214.41 180.07 214.35 180.88C214.28 181.73 214.5 182.48 215.37 182.77C216.75 183.23 218.15 183.63 219.55 184.01C221.95 184.66 224.4 185.19 226.77 185.94C231.13 187.32 234.08 191.9 233.66 196.46C233.27 200.67 230.99 203.58 227.36 205.55C224.61 207.04 221.64 207.62 218.54 207.68C215.26 207.75 212.06 207.47 209.02 206.11C205.14 204.36 202.79 201.31 201.51 197.33C201.48 197.22 201.49 197.1 201.47 196.9C202.54 196.7 203.59 196.51 204.65 196.32C206.78 195.95 208.91 195.6 211.03 195.21C211.49 195.12 211.71 195.24 211.88 195.67C212.75 197.9 214.49 199.02 216.79 199.24C218.01 199.35 219.27 199.25 220.5 199.11C221.57 198.99 222.29 198.28 222.36 197.54C222.48 196.3 222.1 195.52 220.9 195.12C219.41 194.63 217.87 194.29 216.34 193.92C213.43 193.22 210.51 192.54 207.91 190.99C205.15 189.35 203.58 186.88 203.26 183.66C202.68 177.72 206.94 173.16 211.82 171.85C216.5 170.59 221.16 170.58 225.73 172.39C228.75 173.58 231.72 176.74 232.63 179.72Z" 
fill="#334B5C"/>
<path d="M35.4099 189.35C35.4099 183.75 35.4099 178.15 35.4099 172.55C35.4099 171.61 35.4099 171.61 36.3299 171.61C44.4499 171.61 52.5699 171.62 60.6899 171.6C61.3499 171.6 61.5299 171.81 61.5199 172.44C61.4899 174.72 61.4999 177.01 61.5299 179.29C61.5399 179.93 61.3399 180.15 60.6799 180.15C56.1899 180.13 51.6899 180.14 47.1999 180.14C46.2599 180.14 46.2599 180.14 46.2599 181.11C46.2599 182.33 46.2599 183.56 46.2599 184.78C46.2599 185.72 46.2599 185.72 47.1699 185.72C50.5099 185.72 53.8499 185.74 57.1999 185.72C57.7799 185.72 57.9699 185.89 57.9599 186.48C57.9299 188.53 57.9599 190.57 57.9399 192.62C57.9299 193.86 58.2299 193.8 56.7199 193.8C53.5399 193.81 50.3699 193.8 47.1899 193.8C46.2699 193.8 46.2699 193.8 46.2699 194.75C46.2699 198.56 46.2599 202.38 46.2799 206.19C46.2899 206.88 46.1199 207.13 45.3799 207.12C42.3199 207.08 39.2599 207.08 36.1999 207.11C35.5599 207.12 35.4099 206.91 35.4099 206.3C35.4099 200.65 35.4099 195 35.4099 189.35Z" 
fill="#334B5C"/>
<path d="M64.91 189.35C64.91 183.75 64.91 178.15 64.91 172.55C64.91 171.62 64.91 171.62 65.84 171.62C68.92 171.62 72.01 171.64 75.09 171.6C75.82 171.59 76 171.82 76 172.52C75.98 180.62 75.98 188.71 75.98 196.81C75.98 197.07 76.01 197.33 75.98 197.59C75.9 198.25 76.14 198.48 76.84 198.47C80.02 198.43 83.19 198.45 86.37 198.45C87.36 198.45 88.35 198.48 89.33 198.44C89.91 198.42 90.11 198.62 90.11 199.21C90.08 201.54 90.08 203.87 90.11 206.2C90.12 206.91 89.91 207.12 89.19 207.12C82.2 207.09 75.21 207.1 68.22 207.11C67.4 207.11 66.57 207.09 65.75 207.13C65.11 207.17 64.89 206.95 64.9 206.3C64.93 202.86 64.91 199.43 64.91 195.99C64.91 193.77 64.91 191.56 64.91 189.35Z" 
fill="#334B5C"/>
<path d="M179.06 182.5C179.06 181.58 179.07 180.67 179.05 179.75C179.04 179.33 179.19 179.15 179.62 179.16C181.45 179.18 183.29 179.13 185.11 179.22C186.44 179.29 187.64 179.8 188.06 181.22C188.44 182.52 188.45 183.85 187.34 184.88C186.51 185.66 185.43 185.89 184.35 185.94C182.83 186.01 181.3 185.94 179.77 185.96C179.18 185.97 179.01 185.74 179.04 185.17C179.09 184.29 179.06 183.39 179.06 182.5Z" 
fill="#F1E9E3"/>
<path d="M151.65 188.59C151.3 191.09 151.06 193.61 150.58 196.09C150.26 197.75 149.29 199.04 147.48 199.49C145.17 200.07 143.06 199.04 142.12 196.85C141.37 195.09 141.11 193.24 141.03 191.36C140.92 188.75 140.96 186.14 141.64 183.6C142.01 182.23 142.53 180.92 143.69 179.99C145.71 178.36 148.83 178.98 150.08 181.24C150.92 182.76 151.18 184.42 151.32 186.11C151.39 186.93 151.42 187.75 151.46 188.57C151.53 188.57 151.59 188.58 151.65 188.59Z" 
fill="#F1E9E3"/>
<path d="M103.72 189.97C103.78 187.09 103.91 184.54 104.9 182.12C106.24 178.83 109.29 178.55 111.23 179.59C112.67 180.36 113.26 181.76 113.62 183.26C114.19 185.63 114.32 188.04 114.1 190.46C113.96 192.02 113.85 193.6 113.58 195.14C113.31 196.68 112.8 198.18 111.33 199.04C109.66 200.01 106.8 199.98 105.39 197.77C104.37 196.17 104.06 194.38 103.88 192.55C103.78 191.58 103.76 190.62 103.72 189.97Z" 
fill="#F1E9E3"/>
</svg>
