<svg width="118" height="57" viewBox="0 0 118 57" fill="none" xmlns="http://www.w3.org/2000/svg">
<g clip-path="url(#clip0_741_581)">
<path opacity="0.75" d="M114.771 18.4124V5.39062H68.3602V18.3459H46.5059V30.4657H59.0463L58.8512 44.0989H106.823L107.019 30.0419H94.2829V18.4124H114.771Z" fill="#E77736"/>
<path d="M61.769 29.3918L61.7461 42.0928L109.133 42.1768L109.156 29.4759L61.769 29.3918Z" stroke="black" stroke-width="1.2981" stroke-miterlimit="10"/>
<path d="M1.78654 16.3332L1.76367 29.0342L49.1503 29.1182L49.1732 16.4173L1.78654 16.3332Z" stroke="black" stroke-width="1.2981" stroke-miterlimit="10"/>
<path d="M2.04004 19.2363L12.3054 19.2545" stroke="black" stroke-width="1.2693" stroke-miterlimit="10"/>
<path d="M2.03418 22.5654L30.604 22.6199" stroke="black" stroke-width="1.2693" stroke-miterlimit="10"/>
<path d="M15.6543 19.2598L49.4026 19.3203" stroke="black" stroke-width="1.2693" stroke-miterlimit="10"/>
<path d="M34.2578 22.626L49.3967 22.6502" stroke="black" stroke-width="1.2693" stroke-miterlimit="10"/>
<path d="M2.02832 25.8828L21.1745 25.9131" stroke="black" stroke-width="1.2693" stroke-miterlimit="10"/>
<path d="M24.9746 25.9189L49.3907 25.9674" stroke="black" stroke-width="1.2693" stroke-miterlimit="10"/>
<path d="M23.7201 3.41426L23.6973 16.1152L71.0839 16.1993L71.1068 3.49833L23.7201 3.41426Z" stroke="black" stroke-width="1.2981" stroke-miterlimit="10"/>
<path d="M23.9736 6.31055L34.239 6.32871" stroke="black" stroke-width="1.2693" stroke-miterlimit="10"/>
<path d="M23.9678 9.64648L52.5376 9.69491" stroke="black" stroke-width="1.2693" stroke-miterlimit="10"/>
<path d="M37.5947 6.33496L71.3369 6.3955" stroke="black" stroke-width="1.2693" stroke-miterlimit="10"/>
<path d="M56.1914 9.70117L71.3303 9.73144" stroke="black" stroke-width="1.2693" stroke-miterlimit="10"/>
<path d="M23.9619 12.958L43.1081 12.9943" stroke="black" stroke-width="1.2693" stroke-miterlimit="10"/>
<path d="M46.9082 13L71.3243 13.0424" stroke="black" stroke-width="1.2693" stroke-miterlimit="10"/>
<path d="M35.2031 6.33496H36.6609" stroke="black" stroke-width="1.2693" stroke-miterlimit="10"/>
<path d="M53.6602 9.66504L55.1179 9.67109" stroke="black" stroke-width="1.2493" stroke-miterlimit="10"/>
<path d="M44.2305 12.9883H45.6943" stroke="black" stroke-width="1.2493" stroke-miterlimit="10"/>
<path d="M31.6172 22.584H33.0811" stroke="black" stroke-width="1.2493" stroke-miterlimit="10"/>
<path d="M22.3818 25.9258L23.8457 25.9318" stroke="black" stroke-width="1.2493" stroke-miterlimit="10"/>
<path d="M13.251 19.2119H14.7148" stroke="black" stroke-width="1.2493" stroke-miterlimit="10"/>
<path d="M71.0824 3.49434L71.0596 16.1953L116.69 16.2763L116.712 3.57529L71.0824 3.49434Z" stroke="black" stroke-width="1.2981" stroke-miterlimit="10"/>
<path d="M48.9721 16.4182L48.9492 29.1191L96.3359 29.2032L96.3588 16.5022L48.9721 16.4182Z" stroke="black" stroke-width="1.2981" stroke-miterlimit="10"/>
<path d="M14.224 29.3068L14.2012 42.0078L61.5878 42.0919L61.6107 29.3909L14.224 29.3068Z" stroke="black" stroke-width="1.2981" stroke-miterlimit="10"/>
<path d="M14.4775 32.2031L24.7368 32.2213" stroke="black" stroke-width="1.2693" stroke-miterlimit="10"/>
<path d="M14.4717 35.5391L43.0354 35.5875" stroke="black" stroke-width="1.2693" stroke-miterlimit="10"/>
<path d="M28.0908 32.2275L61.8391 32.2881" stroke="black" stroke-width="1.2693" stroke-miterlimit="10"/>
<path d="M46.6943 35.5938L61.8332 35.624" stroke="black" stroke-width="1.2693" stroke-miterlimit="10"/>
<path d="M14.4648 38.8506L33.611 38.8869" stroke="black" stroke-width="1.2693" stroke-miterlimit="10"/>
<path d="M37.4053 38.8926L61.8275 38.935" stroke="black" stroke-width="1.2693" stroke-miterlimit="10"/>
<path d="M25.6816 32.209L27.1455 32.215" stroke="black" stroke-width="1.2493" stroke-miterlimit="10"/>
<path d="M34.8135 38.875L36.2773 38.8811" stroke="black" stroke-width="1.2493" stroke-miterlimit="10"/>
<path d="M44.1455 35.5264L45.6094 35.5324" stroke="black" stroke-width="1.2493" stroke-miterlimit="10"/>
<path d="M35.1078 42.3225L35.085 55.0234L82.4716 55.1075L82.4945 42.4065L35.1078 42.3225Z" stroke="black" stroke-width="1.2981" stroke-miterlimit="10"/>
<path d="M35.3613 45.2188L45.6267 45.2369" stroke="black" stroke-width="1.2693" stroke-miterlimit="10"/>
<path d="M35.3555 48.5547L63.9192 48.6031" stroke="black" stroke-width="1.2693" stroke-miterlimit="10"/>
<path d="M48.9756 45.2432L82.7239 45.3037" stroke="black" stroke-width="1.2693" stroke-miterlimit="10"/>
<path d="M67.5791 48.6094L82.718 48.6336" stroke="black" stroke-width="1.2693" stroke-miterlimit="10"/>
<path d="M35.3496 51.8662L54.4958 51.9025" stroke="black" stroke-width="1.2693" stroke-miterlimit="10"/>
<path d="M58.29 51.9082L82.7123 51.9506" stroke="black" stroke-width="1.2693" stroke-miterlimit="10"/>
<path d="M46.5664 45.2246H48.0303" stroke="black" stroke-width="1.2493" stroke-miterlimit="10"/>
<path d="M55.7031 51.8906L57.1609 51.8967" stroke="black" stroke-width="1.2493" stroke-miterlimit="10"/>
<path d="M65.0293 48.543L66.4932 48.549" stroke="black" stroke-width="1.2493" stroke-miterlimit="10"/>
</g>
<defs>
<clipPath id="clip0_741_581">
<rect width="116.579" height="56.0647" fill="white" transform="translate(0.985352 0.826172)"/>
</clipPath>
</defs>
</svg>
