<svg width="118" height="87" viewBox="0 0 118 87" fill="none" xmlns="http://www.w3.org/2000/svg">
<g clip-path="url(#clip0_741_509)">
<path opacity="0.75" d="M73.9577 79.8552V2.88529C73.9577 2.88529 68.6721 -0.773791 65.1935 2.60855C61.7148 5.9909 57.6461 2.60855 57.6461 2.60855C57.6461 2.60855 54.2044 -0.232616 50.2341 2.60855C45.7659 5.80641 41.9492 2.60855 41.9492 2.60855V80.0274H41.9554V83.053C41.9554 83.053 45.2742 87.7514 49.5703 84.0247C53.178 80.8945 56.9885 84.0247 56.9885 84.0247C56.9885 84.0247 61.346 88.1388 64.499 84.2768C67.8485 80.1688 73.97 84.6765 73.97 84.6765V79.8613H73.9577V79.8552Z" fill="#E77736"/>
<path d="M109.051 44.6357H61.333V57.5317H109.051V44.6357Z" stroke="black" stroke-width="1.2973" stroke-miterlimit="10"/>
<path d="M61.5918 47.5752H71.9294" stroke="black" stroke-width="1.2685" stroke-miterlimit="10"/>
<path d="M61.5918 50.957H90.3613" stroke="black" stroke-width="1.2685" stroke-miterlimit="10"/>
<path d="M75.3037 47.5752H109.285" stroke="black" stroke-width="1.2685" stroke-miterlimit="10"/>
<path d="M94.043 50.957H109.285" stroke="black" stroke-width="1.2685" stroke-miterlimit="10"/>
<path d="M61.5918 54.3213H80.8718" stroke="black" stroke-width="1.2685" stroke-miterlimit="10"/>
<path d="M84.6943 54.3213H109.285" stroke="black" stroke-width="1.2685" stroke-miterlimit="10"/>
<path d="M48.6298 31.4873H0.912109V44.3833H48.6298V31.4873Z" stroke="black" stroke-width="1.2973" stroke-miterlimit="10"/>
<path d="M1.16992 34.4268H11.5075" stroke="black" stroke-width="1.2685" stroke-miterlimit="10"/>
<path d="M1.16992 37.8096H29.9394" stroke="black" stroke-width="1.2685" stroke-miterlimit="10"/>
<path d="M14.8818 34.4268H48.8632" stroke="black" stroke-width="1.2685" stroke-miterlimit="10"/>
<path d="M33.6211 37.8096H48.8632" stroke="black" stroke-width="1.2685" stroke-miterlimit="10"/>
<path d="M1.16992 41.1729H20.45" stroke="black" stroke-width="1.2685" stroke-miterlimit="10"/>
<path d="M24.2725 41.1729H48.8627" stroke="black" stroke-width="1.2685" stroke-miterlimit="10"/>
<path d="M70.6942 18.333H22.9766V31.229H70.6942V18.333Z" stroke="black" stroke-width="1.2973" stroke-miterlimit="10"/>
<path d="M23.2344 21.2725H33.572" stroke="black" stroke-width="1.2685" stroke-miterlimit="10"/>
<path d="M23.2344 24.6553H52.0039" stroke="black" stroke-width="1.2685" stroke-miterlimit="10"/>
<path d="M36.9463 21.2725H70.9276" stroke="black" stroke-width="1.2685" stroke-miterlimit="10"/>
<path d="M55.6855 24.6553H70.9277" stroke="black" stroke-width="1.2685" stroke-miterlimit="10"/>
<path d="M23.2344 28.0186H42.5144" stroke="black" stroke-width="1.2685" stroke-miterlimit="10"/>
<path d="M46.3369 28.0186H70.9271" stroke="black" stroke-width="1.2685" stroke-miterlimit="10"/>
<path d="M34.5371 21.2725H36.0122" stroke="black" stroke-width="1.2685" stroke-miterlimit="10"/>
<path d="M53.1289 24.6182H54.604" stroke="black" stroke-width="1.2485" stroke-miterlimit="10"/>
<path d="M43.6455 28.0068H45.1144" stroke="black" stroke-width="1.2485" stroke-miterlimit="10"/>
<path d="M30.96 37.7725H32.4289" stroke="black" stroke-width="1.2485" stroke-miterlimit="10"/>
<path d="M21.6611 41.1855H23.1362" stroke="black" stroke-width="1.2485" stroke-miterlimit="10"/>
<path d="M72.876 47.5566H74.351" stroke="black" stroke-width="1.2485" stroke-miterlimit="10"/>
<path d="M82.0889 54.3086H83.5578" stroke="black" stroke-width="1.2485" stroke-miterlimit="10"/>
<path d="M91.4795 50.8955H92.9484" stroke="black" stroke-width="1.2485" stroke-miterlimit="10"/>
<path d="M12.46 34.3838H13.935" stroke="black" stroke-width="1.2485" stroke-miterlimit="10"/>
<path d="M116.617 18.333H70.6689V31.229H116.617V18.333Z" stroke="black" stroke-width="1.2973" stroke-miterlimit="10"/>
<path d="M70.9277 21.2725H81.2653" stroke="black" stroke-width="1.2685" stroke-miterlimit="10"/>
<path d="M70.9277 24.6553H99.6972" stroke="black" stroke-width="1.2685" stroke-miterlimit="10"/>
<path d="M84.6387 21.2725H116.856" stroke="black" stroke-width="1.2685" stroke-miterlimit="10"/>
<path d="M103.379 24.6553H116.857" stroke="black" stroke-width="1.2685" stroke-miterlimit="10"/>
<path d="M70.9521 28.0186H90.2322" stroke="black" stroke-width="1.2685" stroke-miterlimit="10"/>
<path d="M94.0547 28.0186H116.875" stroke="black" stroke-width="1.2685" stroke-miterlimit="10"/>
<path d="M82.2295 21.2725H83.7045" stroke="black" stroke-width="1.2685" stroke-miterlimit="10"/>
<path d="M100.828 24.6182H102.297" stroke="black" stroke-width="1.2485" stroke-miterlimit="10"/>
<path d="M91.3564 28.0068H92.8315" stroke="black" stroke-width="1.2485" stroke-miterlimit="10"/>
<path d="M96.1386 31.4873H48.4209V44.3833H96.1386V31.4873Z" stroke="black" stroke-width="1.2973" stroke-miterlimit="10"/>
<path d="M48.6787 34.4268H59.0163" stroke="black" stroke-width="1.2685" stroke-miterlimit="10"/>
<path d="M48.6787 37.8096H77.4482" stroke="black" stroke-width="1.2685" stroke-miterlimit="10"/>
<path d="M62.3906 34.4268H96.372" stroke="black" stroke-width="1.2685" stroke-miterlimit="10"/>
<path d="M81.1299 37.8096H96.372" stroke="black" stroke-width="1.2685" stroke-miterlimit="10"/>
<path d="M48.6787 41.1729H67.9588" stroke="black" stroke-width="1.2685" stroke-miterlimit="10"/>
<path d="M71.7812 41.1729H96.3715" stroke="black" stroke-width="1.2685" stroke-miterlimit="10"/>
<path d="M78.4688 37.7725H79.9438" stroke="black" stroke-width="1.2485" stroke-miterlimit="10"/>
<path d="M69.1758 41.1855H70.6447" stroke="black" stroke-width="1.2485" stroke-miterlimit="10"/>
<path d="M59.9688 34.3838H61.4438" stroke="black" stroke-width="1.2485" stroke-miterlimit="10"/>
<path d="M61.1737 44.6357H13.4561V57.5317H61.1737V44.6357Z" stroke="black" stroke-width="1.2973" stroke-miterlimit="10"/>
<path d="M13.7139 47.5752H24.0515" stroke="black" stroke-width="1.2685" stroke-miterlimit="10"/>
<path d="M13.7139 50.957H42.4834" stroke="black" stroke-width="1.2685" stroke-miterlimit="10"/>
<path d="M27.4258 47.5752H61.4071" stroke="black" stroke-width="1.2685" stroke-miterlimit="10"/>
<path d="M46.165 50.957H61.4072" stroke="black" stroke-width="1.2685" stroke-miterlimit="10"/>
<path d="M13.7139 54.3213H32.9939" stroke="black" stroke-width="1.2685" stroke-miterlimit="10"/>
<path d="M36.8174 54.3213H61.4076" stroke="black" stroke-width="1.2685" stroke-miterlimit="10"/>
<path d="M24.998 47.5566H26.4731" stroke="black" stroke-width="1.2485" stroke-miterlimit="10"/>
<path d="M34.2109 54.3086H35.6798" stroke="black" stroke-width="1.2485" stroke-miterlimit="10"/>
<path d="M43.5957 50.8955H45.0707" stroke="black" stroke-width="1.2485" stroke-miterlimit="10"/>
<path d="M82.2235 57.8086H34.5059V70.7046H82.2235V57.8086Z" stroke="black" stroke-width="1.2973" stroke-miterlimit="10"/>
<path d="M34.7705 60.748H45.1081" stroke="black" stroke-width="1.2685" stroke-miterlimit="10"/>
<path d="M34.7705 64.1299H63.5339" stroke="black" stroke-width="1.2685" stroke-miterlimit="10"/>
<path d="M48.4824 60.748H82.4638" stroke="black" stroke-width="1.2685" stroke-miterlimit="10"/>
<path d="M67.2148 64.1299H82.4631" stroke="black" stroke-width="1.2685" stroke-miterlimit="10"/>
<path d="M34.7705 67.4941H54.0506" stroke="black" stroke-width="1.2685" stroke-miterlimit="10"/>
<path d="M57.873 67.4941H82.4633" stroke="black" stroke-width="1.2685" stroke-miterlimit="10"/>
<path d="M46.0547 60.7295H47.5297" stroke="black" stroke-width="1.2485" stroke-miterlimit="10"/>
<path d="M55.2607 67.4814H56.7358" stroke="black" stroke-width="1.2485" stroke-miterlimit="10"/>
<path d="M64.6523 64.0684H66.1274" stroke="black" stroke-width="1.2485" stroke-miterlimit="10"/>
</g>
<defs>
<clipPath id="clip0_741_509">
<rect width="117.469" height="85.4319" fill="white" transform="translate(0.119141 0.954102)"/>
</clipPath>
</defs>
</svg>
