<svg width="219" height="213" viewBox="0 0 219 213" fill="none" xmlns="http://www.w3.org/2000/svg">
<path d="M37.6818 27.4546V74H31.2273L7.56818 39.8636H7.13637V74H0.113639V27.4546H6.61364L30.2955 61.6364H30.7273V27.4546H37.6818Z" fill="#334B5C"/>
<path d="M88.358 50.7273C88.358 55.697 87.4489 59.9697 85.6307 63.5455C83.8125 67.1061 81.3201 69.8485 78.1534 71.7727C75.0019 73.6818 71.4186 74.6364 67.4034 74.6364C63.3731 74.6364 59.7746 73.6818 56.608 71.7727C53.4564 69.8485 50.9716 67.0985 49.1534 63.5227C47.3352 59.947 46.4261 55.6818 46.4261 50.7273C46.4261 45.7576 47.3352 41.4924 49.1534 37.9318C50.9716 34.3561 53.4564 31.6136 56.608 29.7046C59.7746 27.7803 63.3731 26.8182 67.4034 26.8182C71.4186 26.8182 75.0019 27.7803 78.1534 29.7046C81.3201 31.6136 83.8125 34.3561 85.6307 37.9318C87.4489 41.4924 88.358 45.7576 88.358 50.7273ZM81.4034 50.7273C81.4034 46.9394 80.7898 43.75 79.5625 41.1591C78.3504 38.553 76.6837 36.5833 74.5625 35.25C72.4564 33.9015 70.0701 33.2273 67.4034 33.2273C64.7216 33.2273 62.3277 33.9015 60.2216 35.25C58.1155 36.5833 56.4489 38.553 55.2216 41.1591C54.0095 43.75 53.4034 46.9394 53.4034 50.7273C53.4034 54.5152 54.0095 57.7121 55.2216 60.3182C56.4489 62.9091 58.1155 64.8788 60.2216 66.2273C62.3277 67.5606 64.7216 68.2273 67.4034 68.2273C70.0701 68.2273 72.4564 67.5606 74.5625 66.2273C76.6837 64.8788 78.3504 62.9091 79.5625 60.3182C80.7898 57.7121 81.4034 54.5152 81.4034 50.7273Z" fill="#334B5C"/>
<path d="M97.1136 74V27.4546H113.705C117.311 27.4546 120.303 28.0758 122.682 29.3182C125.076 30.5606 126.864 32.2803 128.045 34.4773C129.227 36.6591 129.818 39.1818 129.818 42.0455C129.818 44.8939 129.22 47.4015 128.023 49.5682C126.841 51.7197 125.053 53.3939 122.659 54.5909C120.28 55.7879 117.288 56.3864 113.682 56.3864H101.114V50.3409H113.045C115.318 50.3409 117.167 50.0152 118.591 49.3636C120.03 48.7121 121.083 47.7652 121.75 46.5227C122.417 45.2803 122.75 43.7879 122.75 42.0455C122.75 40.2879 122.409 38.7652 121.727 37.4773C121.061 36.1894 120.008 35.2046 118.568 34.5227C117.144 33.8258 115.273 33.4773 112.955 33.4773H104.136V74H97.1136ZM120.091 53L131.591 74H123.591L112.318 53H120.091Z" fill="#334B5C"/>
<path d="M136.068 33.5V27.4546H172.091V33.5H157.568V74H150.568V33.5H136.068Z" fill="#334B5C"/>
<path d="M180.051 74V27.4546H187.074V47.6818H210.278V27.4546H217.324V74H210.278V53.7046H187.074V74H180.051Z" fill="#334B5C"/>
<path d="M-1.96378 120V92.3636H2.20597V104.374H15.9837V92.3636H20.1669V120H15.9837V107.95H2.20597V120H-1.96378Z" fill="#334B5C"/>
<path d="M28.5739 120H24.1477L34.093 92.3636H38.9105L48.8558 120H44.4297L36.6165 97.3835H36.4006L28.5739 120ZM29.3161 109.178H43.674V112.686H29.3161V109.178Z" fill="#334B5C"/>
<path d="M52.8468 120V92.3636H62.6976C64.8387 92.3636 66.6155 92.7325 68.0279 93.4702C69.4493 94.2079 70.5108 95.2289 71.2125 96.5334C71.9142 97.8288 72.2651 99.3267 72.2651 101.027C72.2651 102.718 71.9097 104.207 71.199 105.494C70.4973 106.771 69.4358 107.765 68.0144 108.476C66.602 109.187 64.8252 109.542 62.6841 109.542H55.2218V105.952H62.3063C63.6557 105.952 64.7533 105.759 65.5989 105.372C66.4535 104.985 67.0788 104.423 67.4746 103.685C67.8704 102.948 68.0684 102.062 68.0684 101.027C68.0684 99.9834 67.8659 99.0793 67.4611 98.3146C67.0653 97.55 66.4401 96.9652 65.5854 96.5604C64.7398 96.1466 63.6287 95.9396 62.2523 95.9396H57.0165V120H52.8468ZM66.4895 107.531L73.3176 120H68.5676L61.8745 107.531H66.4895Z" fill="#334B5C"/>
<path d="M86.2857 120H77.339V92.3636H86.5691C89.2769 92.3636 91.6025 92.9169 93.5456 94.0234C95.4888 95.121 96.9777 96.6998 98.0123 98.7599C99.0558 100.811 99.5776 103.272 99.5776 106.141C99.5776 109.02 99.0513 111.494 97.9988 113.563C96.9552 115.632 95.4438 117.225 93.4647 118.34C91.4855 119.447 89.0925 120 86.2857 120ZM81.5087 116.357H86.0563C88.1614 116.357 89.9112 115.961 91.3056 115.169C92.7 114.368 93.7436 113.212 94.4363 111.701C95.129 110.181 95.4753 108.327 95.4753 106.141C95.4753 103.973 95.129 102.134 94.4363 100.622C93.7526 99.1108 92.7315 97.9638 91.373 97.1811C90.0146 96.3984 88.3278 96.0071 86.3127 96.0071H81.5087V116.357Z" fill="#334B5C"/>
<path d="M109.84 120L102.175 92.3636H106.561L111.945 113.766H112.202L117.802 92.3636H122.147L127.747 113.779H128.003L133.374 92.3636H137.773L130.095 120H125.898L120.082 99.2997H119.866L114.05 120H109.84Z" fill="#334B5C"/>
<path d="M164.209 106.182C164.209 109.133 163.669 111.67 162.589 113.793C161.51 115.907 160.03 117.535 158.15 118.678C156.278 119.811 154.151 120.378 151.767 120.378C149.374 120.378 147.237 119.811 145.357 118.678C143.486 117.535 142.01 115.902 140.931 113.779C139.851 111.656 139.312 109.124 139.312 106.182C139.312 103.231 139.851 100.699 140.931 98.5845C142.01 96.4614 143.486 94.8331 145.357 93.6996C147.237 92.5571 149.374 91.9858 151.767 91.9858C154.151 91.9858 156.278 92.5571 158.15 93.6996C160.03 94.8331 161.51 96.4614 162.589 98.5845C163.669 100.699 164.209 103.231 164.209 106.182ZM160.079 106.182C160.079 103.933 159.715 102.039 158.986 100.501C158.267 98.9534 157.277 97.7839 156.018 96.9922C154.767 96.1915 153.35 95.7912 151.767 95.7912C150.175 95.7912 148.753 96.1915 147.503 96.9922C146.252 97.7839 145.263 98.9534 144.534 100.501C143.814 102.039 143.454 103.933 143.454 106.182C143.454 108.431 143.814 110.329 144.534 111.876C145.263 113.415 146.252 114.584 147.503 115.385C148.753 116.177 150.175 116.572 151.767 116.572C153.35 116.572 154.767 116.177 156.018 115.385C157.277 114.584 158.267 113.415 158.986 111.876C159.715 110.329 160.079 108.431 160.079 106.182Z" fill="#334B5C"/>
<path d="M193.414 106.182C193.414 109.133 192.874 111.67 191.794 113.793C190.715 115.907 189.235 117.535 187.355 118.678C185.484 119.811 183.356 120.378 180.972 120.378C178.579 120.378 176.442 119.811 174.562 118.678C172.691 117.535 171.216 115.902 170.136 113.779C169.056 111.656 168.517 109.124 168.517 106.182C168.517 103.231 169.056 100.699 170.136 98.5845C171.216 96.4614 172.691 94.8331 174.562 93.6996C176.442 92.5571 178.579 91.9858 180.972 91.9858C183.356 91.9858 185.484 92.5571 187.355 93.6996C189.235 94.8331 190.715 96.4614 191.794 98.5845C192.874 100.699 193.414 103.231 193.414 106.182ZM189.284 106.182C189.284 103.933 188.92 102.039 188.191 100.501C187.472 98.9534 186.482 97.7839 185.223 96.9922C183.972 96.1915 182.555 95.7912 180.972 95.7912C179.38 95.7912 177.958 96.1915 176.708 96.9922C175.457 97.7839 174.468 98.9534 173.739 100.501C173.019 102.039 172.659 103.933 172.659 106.182C172.659 108.431 173.019 110.329 173.739 111.876C174.468 113.415 175.457 114.584 176.708 115.385C177.958 116.177 179.38 116.572 180.972 116.572C182.555 116.572 183.972 116.177 185.223 115.385C186.482 114.584 187.472 113.415 188.191 111.876C188.92 110.329 189.284 108.431 189.284 106.182Z" fill="#334B5C"/>
<path d="M207.559 120H198.612V92.3636H207.843C210.55 92.3636 212.876 92.9169 214.819 94.0234C216.762 95.121 218.251 96.6998 219.286 98.7599C220.329 100.811 220.851 103.272 220.851 106.141C220.851 109.02 220.325 111.494 219.272 113.563C218.229 115.632 216.717 117.225 214.738 118.34C212.759 119.447 210.366 120 207.559 120ZM202.782 116.357H207.33C209.435 116.357 211.185 115.961 212.579 115.169C213.973 114.368 215.017 113.212 215.71 111.701C216.402 110.181 216.749 108.327 216.749 106.141C216.749 103.973 216.402 102.134 215.71 100.622C215.026 99.1108 214.005 97.9638 212.646 97.1811C211.288 96.3984 209.601 96.0071 207.586 96.0071H202.782V116.357Z" fill="#334B5C"/>
<path d="M-0.365764 190V147.818H25.7919V153.297H5.99858V166.149H23.9176V171.607H5.99858V190H-0.365764Z" fill="#334B5C"/>
<path d="M33.6186 190V147.818H39.983V184.521H59.0966V190H33.6186Z" fill="#334B5C"/>
<path d="M101.356 168.909C101.356 173.413 100.532 177.285 98.8841 180.526C97.2363 183.752 94.9776 186.238 92.1078 187.982C89.2517 189.712 86.0043 190.577 82.3656 190.577C78.7131 190.577 75.452 189.712 72.5822 187.982C69.7262 186.238 67.4743 183.746 65.8265 180.505C64.1788 177.264 63.3549 173.399 63.3549 168.909C63.3549 164.405 64.1788 160.54 65.8265 157.313C67.4743 154.073 69.7262 151.587 72.5822 149.857C75.452 148.113 78.7131 147.241 82.3656 147.241C86.0043 147.241 89.2517 148.113 92.1078 149.857C94.9776 151.587 97.2363 154.073 98.8841 157.313C100.532 160.54 101.356 164.405 101.356 168.909ZM95.0531 168.909C95.0531 165.476 94.497 162.586 93.3848 160.238C92.2863 157.876 90.7759 156.091 88.8535 154.883C86.9449 153.661 84.7823 153.05 82.3656 153.05C79.9352 153.05 77.7657 153.661 75.8571 154.883C73.9485 156.091 72.438 157.876 71.3258 160.238C70.2273 162.586 69.6781 165.476 69.6781 168.909C69.6781 172.342 70.2273 175.239 71.3258 177.601C72.438 179.949 73.9485 181.734 75.8571 182.956C77.7657 184.164 79.9352 184.768 82.3656 184.768C84.7823 184.768 86.9449 184.164 88.8535 182.956C90.7759 181.734 92.2863 179.949 93.3848 177.601C94.497 175.239 95.0531 172.342 95.0531 168.909Z" fill="#334B5C"/>
<path d="M145.932 168.909C145.932 173.413 145.108 177.285 143.46 180.526C141.813 183.752 139.554 186.238 136.684 187.982C133.828 189.712 130.581 190.577 126.942 190.577C123.289 190.577 120.028 189.712 117.158 187.982C114.302 186.238 112.05 183.746 110.403 180.505C108.755 177.264 107.931 173.399 107.931 168.909C107.931 164.405 108.755 160.54 110.403 157.313C112.05 154.073 114.302 151.587 117.158 149.857C120.028 148.113 123.289 147.241 126.942 147.241C130.581 147.241 133.828 148.113 136.684 149.857C139.554 151.587 141.813 154.073 143.46 157.313C145.108 160.54 145.932 164.405 145.932 168.909ZM139.629 168.909C139.629 165.476 139.073 162.586 137.961 160.238C136.862 157.876 135.352 156.091 133.43 154.883C131.521 153.661 129.358 153.05 126.942 153.05C124.511 153.05 122.342 153.661 120.433 154.883C118.525 156.091 117.014 157.876 115.902 160.238C114.804 162.586 114.254 165.476 114.254 168.909C114.254 172.342 114.804 175.239 115.902 177.601C117.014 179.949 118.525 181.734 120.433 182.956C122.342 184.164 124.511 184.768 126.942 184.768C129.358 184.768 131.521 184.164 133.43 182.956C135.352 181.734 136.862 179.949 137.961 177.601C139.073 175.239 139.629 172.342 139.629 168.909Z" fill="#334B5C"/>
<path d="M153.867 190V147.818H168.902C172.17 147.818 174.882 148.381 177.038 149.507C179.207 150.633 180.828 152.192 181.899 154.183C182.97 156.16 183.505 158.446 183.505 161.041C183.505 163.623 182.963 165.895 181.878 167.859C180.807 169.808 179.187 171.326 177.017 172.411C174.861 173.495 172.15 174.038 168.882 174.038H157.492V168.559H168.305C170.365 168.559 172.04 168.264 173.33 167.673C174.635 167.083 175.589 166.225 176.193 165.099C176.798 163.973 177.1 162.62 177.1 161.041C177.1 159.448 176.791 158.068 176.173 156.901C175.569 155.734 174.614 154.842 173.31 154.224C172.019 153.592 170.323 153.276 168.222 153.276H160.231V190H153.867ZM174.69 170.969L185.112 190H177.862L167.646 170.969H174.69Z" fill="#334B5C"/>
<path d="M214.256 158.899C214.036 156.949 213.13 155.439 211.537 154.368C209.944 153.283 207.94 152.741 205.523 152.741C203.793 152.741 202.296 153.015 201.033 153.565C199.77 154.1 198.788 154.842 198.088 155.789C197.401 156.723 197.058 157.787 197.058 158.982C197.058 159.984 197.291 160.849 197.758 161.577C198.239 162.304 198.863 162.915 199.632 163.41C200.415 163.89 201.253 164.295 202.145 164.625C203.038 164.941 203.896 165.202 204.72 165.408L208.839 166.479C210.185 166.808 211.565 167.255 212.979 167.817C214.393 168.38 215.704 169.122 216.913 170.042C218.121 170.962 219.096 172.102 219.838 173.461C220.593 174.82 220.97 176.447 220.97 178.342C220.97 180.732 220.352 182.853 219.117 184.707C217.895 186.56 216.116 188.023 213.782 189.094C211.462 190.165 208.654 190.7 205.358 190.7C202.2 190.7 199.468 190.199 197.161 189.197C194.854 188.194 193.048 186.773 191.744 184.933C190.439 183.08 189.718 180.883 189.581 178.342H195.966C196.09 179.866 196.584 181.137 197.449 182.153C198.328 183.155 199.447 183.903 200.806 184.398C202.179 184.878 203.683 185.119 205.317 185.119C207.116 185.119 208.715 184.837 210.116 184.274C211.53 183.697 212.642 182.901 213.453 181.885C214.263 180.855 214.668 179.654 214.668 178.281C214.668 177.031 214.311 176.008 213.597 175.212C212.896 174.415 211.942 173.756 210.734 173.234C209.539 172.713 208.187 172.253 206.676 171.854L201.692 170.495C198.314 169.575 195.637 168.223 193.659 166.438C191.696 164.652 190.714 162.291 190.714 159.352C190.714 156.922 191.373 154.8 192.691 152.988C194.009 151.175 195.794 149.768 198.046 148.766C200.298 147.75 202.838 147.241 205.667 147.241C208.523 147.241 211.043 147.743 213.226 148.745C215.423 149.747 217.153 151.127 218.416 152.885C219.68 154.629 220.339 156.634 220.394 158.899H214.256Z" fill="#334B5C"/>
<path d="M46.8981 212.27C51.481 212.27 54.4141 210.439 58.9051 205.558L108.217 151.35C108.675 150.842 109.042 150.435 109.5 150.435C109.958 150.435 110.325 150.842 110.783 151.35L160.095 205.558C164.586 210.439 167.519 212.27 172.102 212.27C178.243 212.27 182.093 206.981 182.093 200.066C182.093 196.201 180.626 191.625 179.251 187.455L121.965 13.7478C119.032 4.798 114.724 0.729919 109.5 0.729919C104.276 0.729919 99.9676 4.798 97.0346 13.7478L39.7489 187.455C38.3739 191.625 36.9074 196.201 36.9074 200.066C36.9074 206.981 40.7571 212.27 46.8981 212.27ZM53.2225 190.099C52.9476 189.895 52.8557 189.489 53.1306 188.879L108.583 22.7991C108.858 21.9855 109.133 21.6804 109.5 21.6804C109.866 21.6804 110.142 21.9855 110.417 22.7991L165.869 188.879C166.144 189.489 166.053 189.895 165.778 190.099C165.594 190.2 165.228 190.099 164.953 189.895L114.083 132.637C112.433 130.807 110.783 130.4 109.5 130.4C108.125 130.4 106.567 130.807 104.917 132.637L54.0472 189.895C53.7723 190.099 53.4055 190.2 53.2225 190.099Z" fill="#334B5C" fill-opacity="0.05"/>
</svg>
